<svg xmlns="http://www.w3.org/2000/svg" xmlns:xlink="http://www.w3.org/1999/xlink" width="250" zoomAndPan="magnify" viewBox="0 0 187.5 187.499992" height="250" preserveAspectRatio="xMidYMid meet" version="1.0"><defs><clipPath id="cf968b52c7"><path d="M 0 25 L 164 25 L 164 183 L 0 183 Z M 0 25 " clip-rule="nonzero"/></clipPath><clipPath id="ff1185ef4d"><path d="M 105.191406 245.046875 L -59.300781 80.550781 L 105.191406 -83.941406 L 269.6875 80.550781 Z M 105.191406 245.046875 " clip-rule="nonzero"/></clipPath><clipPath id="6aa6748d02"><path d="M 105.191406 245.046875 L -59.300781 80.550781 L 104.132812 -82.882812 L 268.628906 81.609375 Z M 105.191406 245.046875 " clip-rule="nonzero"/></clipPath><clipPath id="debd340a69"><path d="M 105.191406 245.046875 L -59.300781 80.550781 L 105.191406 -83.941406 L 269.6875 80.550781 Z M 105.191406 245.046875 " clip-rule="nonzero"/></clipPath><clipPath id="b70da28585"><path d="M 80.1875 217.410156 L -31.667969 105.554688 L 83.699219 -9.808594 L 195.554688 102.046875 Z M 80.1875 217.410156 " clip-rule="nonzero"/></clipPath><clipPath id="f8157ba653"><path d="M 0.53125 25.007812 L 164.890625 25.007812 L 164.886719 182.921875 L 0.53125 182.921875 Z M 0.53125 25.007812 " clip-rule="nonzero"/></clipPath><clipPath id="dfbc55f0ab"><path d="M 82.820312 265.664062 L -79.042969 103.800781 L 82.382812 -57.625 L 244.242188 104.238281 Z M 82.820312 265.664062 " clip-rule="nonzero"/></clipPath><clipPath id="18da9f084a"><path d="M 0.53125 25.007812 L 164.890625 25.007812 L 164.886719 182.921875 L 0.53125 182.921875 Z M 0.53125 25.007812 " clip-rule="nonzero"/></clipPath><clipPath id="8abd4d4333"><path d="M 90.316406 25.003906 L 163.320312 25.003906 L 163.320312 94.472656 L 90.316406 94.472656 Z M 90.316406 25.003906 " clip-rule="nonzero"/></clipPath><clipPath id="efc582bd76"><path d="M 105.191406 245.046875 L -59.300781 80.550781 L 105.191406 -83.941406 L 269.6875 80.550781 Z M 105.191406 245.046875 " clip-rule="nonzero"/></clipPath><clipPath id="53225b1fc1"><path d="M 105.191406 245.046875 L -59.300781 80.550781 L 104.132812 -82.882812 L 268.628906 81.609375 Z M 105.191406 245.046875 " clip-rule="nonzero"/></clipPath><clipPath id="5a9ce10cc1"><path d="M 105.191406 245.046875 L -59.300781 80.550781 L 105.191406 -83.941406 L 269.6875 80.550781 Z M 105.191406 245.046875 " clip-rule="nonzero"/></clipPath><clipPath id="9c9a35f8f6"><path d="M 126.6875 131.433594 L 55.1875 59.933594 L 127.125 -12.003906 L 198.625 59.496094 Z M 126.6875 131.433594 " clip-rule="nonzero"/></clipPath><clipPath id="02a38c44b9"><path d="M 126.773438 131.03125 L 55.5 59.761719 L 126.878906 -11.617188 L 198.152344 59.652344 Z M 126.773438 131.03125 " clip-rule="nonzero"/></clipPath><clipPath id="34168b31f6"><path d="M 99.515625 1.125 L 172.519531 1.125 L 172.519531 19.945312 L 99.515625 19.945312 Z M 99.515625 1.125 " clip-rule="nonzero"/></clipPath><clipPath id="cb5b8ff14b"><path d="M 105.191406 245.046875 L -59.300781 80.550781 L 105.191406 -83.941406 L 269.6875 80.550781 Z M 105.191406 245.046875 " clip-rule="nonzero"/></clipPath><clipPath id="2e12a609a5"><path d="M 105.191406 245.046875 L -59.300781 80.550781 L 104.132812 -82.882812 L 268.628906 81.609375 Z M 105.191406 245.046875 " clip-rule="nonzero"/></clipPath><clipPath id="b510da0da1"><path d="M 105.191406 245.046875 L -59.300781 80.550781 L 105.191406 -83.941406 L 269.6875 80.550781 Z M 105.191406 245.046875 " clip-rule="nonzero"/></clipPath><clipPath id="566c76cb60"><path d="M 136.335938 56.863281 L 89.839844 10.367188 L 135.898438 -35.691406 L 182.394531 10.804688 Z M 136.335938 56.863281 " clip-rule="nonzero"/></clipPath><clipPath id="bf302fe838"><path d="M 136.035156 56.496094 L 90.03125 10.492188 L 136.039062 -35.515625 L 182.042969 10.488281 Z M 136.035156 56.496094 " clip-rule="nonzero"/></clipPath><clipPath id="7ac369de6f"><path d="M 167 1 L 187 1 L 187 84 L 167 84 Z M 167 1 " clip-rule="nonzero"/></clipPath><clipPath id="c0ee4753cc"><path d="M 105.191406 245.046875 L -59.300781 80.550781 L 105.191406 -83.941406 L 269.6875 80.550781 Z M 105.191406 245.046875 " clip-rule="nonzero"/></clipPath><clipPath id="cb70fb332f"><path d="M 105.191406 245.046875 L -59.300781 80.550781 L 104.132812 -82.882812 L 268.628906 81.609375 Z M 105.191406 245.046875 " clip-rule="nonzero"/></clipPath><clipPath id="47f4152616"><path d="M 105.191406 245.046875 L -59.300781 80.550781 L 105.191406 -83.941406 L 269.6875 80.550781 Z M 105.191406 245.046875 " clip-rule="nonzero"/></clipPath><clipPath id="58a365cc04"><path d="M 177.128906 93.273438 L 126.246094 42.390625 L 177.042969 -8.40625 L 227.925781 42.476562 Z M 177.128906 93.273438 " clip-rule="nonzero"/></clipPath><clipPath id="734352ce49"><path d="M 167.65625 83.558594 L 167.65625 1.085938 L 186.472656 1.089844 L 186.472656 83.558594 Z M 167.65625 83.558594 " clip-rule="nonzero"/></clipPath><clipPath id="571d50d062"><path d="M 177.097656 93.132812 L 126.351562 42.390625 L 177.097656 -8.355469 L 227.839844 42.390625 Z M 177.097656 93.132812 " clip-rule="nonzero"/></clipPath><clipPath id="0dbbdb3fcd"><path d="M 167.65625 83.558594 L 167.65625 1.085938 L 186.472656 1.089844 L 186.472656 83.558594 Z M 167.65625 83.558594 " clip-rule="nonzero"/></clipPath></defs><g clip-path="url(#cf968b52c7)"><g clip-path="url(#ff1185ef4d)"><g clip-path="url(#6aa6748d02)"><g clip-path="url(#debd340a69)"><g clip-path="url(#b70da28585)"><g clip-path="url(#f8157ba653)"><g clip-path="url(#dfbc55f0ab)"><g clip-path="url(#18da9f084a)"><path fill="#2a2e30" d="M 163.199219 113.652344 L 105.089844 113.652344 L 144.371094 152.933594 L 131.394531 165.910156 L 91.367188 125.878906 L 91.367188 182.71875 L 73.027344 182.71875 L 73.027344 126.5625 L 31.339844 168.25 L 17.519531 154.429688 L 58.296875 113.652344 L 0.609375 113.652344 L 0.609375 94.078125 L 59.597656 94.078125 L 19.894531 54.371094 L 32.867188 41.398438 L 73.027344 81.589844 L 73.027344 25.007812 L 91.367188 25.007812 L 91.367188 80.546875 L 132.46875 39.445312 L 146.289062 53.300781 L 105.511719 94.078125 L 163.199219 94.078125 Z M 163.199219 113.652344 " fill-opacity="1" fill-rule="nonzero"/></g></g></g></g></g></g></g></g><g clip-path="url(#8abd4d4333)"><g clip-path="url(#efc582bd76)"><g clip-path="url(#53225b1fc1)"><g clip-path="url(#5a9ce10cc1)"><g clip-path="url(#9c9a35f8f6)"><g clip-path="url(#02a38c44b9)"><path fill="#f46530" d="M 90.316406 25.003906 L 163.3125 25.003906 L 163.3125 94.46875 L 90.316406 94.472656 Z M 90.316406 25.003906 " fill-opacity="1" fill-rule="nonzero"/></g></g></g></g></g></g><g clip-path="url(#34168b31f6)"><g clip-path="url(#cb5b8ff14b)"><g clip-path="url(#2e12a609a5)"><g clip-path="url(#b510da0da1)"><g clip-path="url(#566c76cb60)"><g clip-path="url(#bf302fe838)"><path fill="#2a2e30" d="M 99.515625 1.125 L 172.507812 1.125 L 172.507812 19.945312 L 99.515625 19.945312 Z M 99.515625 1.125 " fill-opacity="1" fill-rule="nonzero"/></g></g></g></g></g></g><g clip-path="url(#7ac369de6f)"><g clip-path="url(#c0ee4753cc)"><g clip-path="url(#cb70fb332f)"><g clip-path="url(#47f4152616)"><g clip-path="url(#58a365cc04)"><g clip-path="url(#734352ce49)"><g clip-path="url(#571d50d062)"><g clip-path="url(#0dbbdb3fcd)"><path fill="#2a2e30" d="M 167.65625 83.558594 L 167.65625 1.085938 L 186.472656 1.082031 L 186.472656 83.558594 Z M 167.65625 83.558594 " fill-opacity="1" fill-rule="nonzero"/></g></g></g></g></g></g></g></g></svg>