<svg xmlns="http://www.w3.org/2000/svg" xmlns:xlink="http://www.w3.org/1999/xlink" width="250" zoomAndPan="magnify" viewBox="0 0 187.5 187.499992" height="250" preserveAspectRatio="xMidYMid meet" version="1.0"><defs><clipPath id="476968ac60"><path d="M 0.382812 24.699219 L 164 24.699219 L 164 182.832031 L 0.382812 182.832031 Z M 0.382812 24.699219 " clip-rule="nonzero"/></clipPath><clipPath id="48d7e2f00a"><path d="M 105.191406 245.046875 L -59.300781 80.550781 L 105.191406 -83.941406 L 269.6875 80.550781 Z M 105.191406 245.046875 " clip-rule="nonzero"/></clipPath><clipPath id="25fd818b1e"><path d="M 105.191406 245.046875 L -59.300781 80.550781 L 105.191406 -83.941406 L 269.6875 80.550781 Z M 105.191406 245.046875 " clip-rule="nonzero"/></clipPath><clipPath id="d7a4f115ae"><path d="M 80.152344 217.371094 L -31.859375 105.359375 L 83.667969 -10.167969 L 195.679688 101.84375 Z M 80.152344 217.371094 " clip-rule="nonzero"/></clipPath><clipPath id="f2d848f800"><path d="M 82.789062 265.691406 L -79.300781 103.601562 L 82.351562 -58.050781 L 244.441406 104.039062 Z M 82.789062 265.691406 " clip-rule="nonzero"/></clipPath><clipPath id="53a51c7827"><path d="M 90.292969 24.695312 L 163.402344 24.695312 L 163.402344 94.261719 L 90.292969 94.261719 Z M 90.292969 24.695312 " clip-rule="nonzero"/></clipPath><clipPath id="42d5272508"><path d="M 105.191406 245.046875 L -59.300781 80.550781 L 105.191406 -83.941406 L 269.6875 80.550781 Z M 105.191406 245.046875 " clip-rule="nonzero"/></clipPath><clipPath id="d416523c88"><path d="M 105.191406 245.046875 L -59.300781 80.550781 L 105.191406 -83.941406 L 269.6875 80.550781 Z M 105.191406 245.046875 " clip-rule="nonzero"/></clipPath><clipPath id="f8aecff50b"><path d="M 126.714844 131.277344 L 55.117188 59.675781 L 127.15625 -12.363281 L 198.757812 59.234375 Z M 126.714844 131.277344 " clip-rule="nonzero"/></clipPath><clipPath id="bc0343c493"><path d="M 126.804688 130.871094 L 55.429688 59.5 L 126.910156 -11.980469 L 198.28125 59.394531 Z M 126.804688 130.871094 " clip-rule="nonzero"/></clipPath><clipPath id="ef53ec8a30"><path d="M 99.507812 0.785156 L 172.613281 0.785156 L 172.613281 19.628906 L 99.507812 19.628906 Z M 99.507812 0.785156 " clip-rule="nonzero"/></clipPath><clipPath id="c7714e7c65"><path d="M 105.191406 245.046875 L -59.300781 80.550781 L 105.191406 -83.941406 L 269.6875 80.550781 Z M 105.191406 245.046875 " clip-rule="nonzero"/></clipPath><clipPath id="8bcf83b682"><path d="M 105.191406 245.046875 L -59.300781 80.550781 L 105.191406 -83.941406 L 269.6875 80.550781 Z M 105.191406 245.046875 " clip-rule="nonzero"/></clipPath><clipPath id="17f1e6a00e"><path d="M 136.378906 56.601562 L 89.816406 10.039062 L 135.941406 -36.085938 L 182.503906 10.476562 Z M 136.378906 56.601562 " clip-rule="nonzero"/></clipPath><clipPath id="f437882137"><path d="M 136.078125 56.230469 L 90.007812 10.160156 L 136.082031 -35.910156 L 182.152344 10.160156 Z M 136.078125 56.230469 " clip-rule="nonzero"/></clipPath><clipPath id="6342d2effd"><path d="M 167 0 L 187 0 L 187 84 L 167 84 Z M 167 0 " clip-rule="nonzero"/></clipPath><clipPath id="21538de5a4"><path d="M 105.191406 245.046875 L -59.300781 80.550781 L 105.191406 -83.941406 L 269.6875 80.550781 Z M 105.191406 245.046875 " clip-rule="nonzero"/></clipPath><clipPath id="a1845ea551"><path d="M 105.191406 245.046875 L -59.300781 80.550781 L 105.191406 -83.941406 L 269.6875 80.550781 Z M 105.191406 245.046875 " clip-rule="nonzero"/></clipPath><clipPath id="972128488f"><path d="M 177.230469 93.058594 L 126.277344 42.105469 L 177.144531 -8.761719 L 228.097656 42.191406 Z M 177.230469 93.058594 " clip-rule="nonzero"/></clipPath><clipPath id="38766708ac"><path d="M 167.742188 83.328125 L 167.742188 0.746094 L 186.589844 0.746094 L 186.589844 83.332031 Z M 167.742188 83.328125 " clip-rule="nonzero"/></clipPath><clipPath id="4f8f008b3c"><path d="M 177.199219 92.917969 L 126.382812 42.105469 L 177.199219 -8.710938 L 228.011719 42.105469 Z M 177.199219 92.917969 " clip-rule="nonzero"/></clipPath><clipPath id="57f7619a35"><path d="M 167.742188 83.328125 L 167.742188 0.746094 L 186.589844 0.746094 L 186.589844 83.332031 Z M 167.742188 83.328125 " clip-rule="nonzero"/></clipPath></defs><g clip-path="url(#476968ac60)"><g clip-path="url(#48d7e2f00a)"><g clip-path="url(#25fd818b1e)"><g clip-path="url(#d7a4f115ae)"><g clip-path="url(#f2d848f800)"><path fill="#ffffff" d="M 163.28125 113.464844 L 105.089844 113.46875 L 144.425781 152.804688 L 131.433594 165.796875 L 91.347656 125.710938 L 91.347656 182.632812 L 72.980469 182.632812 L 72.980469 126.394531 L 31.234375 168.140625 L 17.394531 154.300781 L 58.230469 113.464844 L 0.460938 113.464844 L 0.460938 93.863281 L 59.535156 93.863281 L 19.773438 54.101562 L 32.765625 41.109375 L 72.980469 81.359375 L 72.980469 24.699219 L 91.347656 24.699219 L 91.347656 80.316406 L 132.507812 39.15625 L 146.347656 53.027344 L 105.511719 93.863281 L 163.28125 93.863281 Z M 163.28125 113.464844 " fill-opacity="1" fill-rule="nonzero"/></g></g></g></g></g><g clip-path="url(#53a51c7827)"><g clip-path="url(#42d5272508)"><g clip-path="url(#d416523c88)"><g clip-path="url(#f8aecff50b)"><g clip-path="url(#bc0343c493)"><path fill="#f46530" d="M 90.292969 24.695312 L 163.394531 24.691406 L 163.394531 94.257812 L 90.292969 94.261719 Z M 90.292969 24.695312 " fill-opacity="1" fill-rule="nonzero"/></g></g></g></g></g><g clip-path="url(#ef53ec8a30)"><g clip-path="url(#c7714e7c65)"><g clip-path="url(#8bcf83b682)"><g clip-path="url(#17f1e6a00e)"><g clip-path="url(#f437882137)"><path fill="#ffffff" d="M 99.507812 0.785156 L 172.601562 0.78125 L 172.601562 19.628906 L 99.507812 19.628906 Z M 99.507812 0.785156 " fill-opacity="1" fill-rule="nonzero"/></g></g></g></g></g><g clip-path="url(#6342d2effd)"><g clip-path="url(#21538de5a4)"><g clip-path="url(#a1845ea551)"><g clip-path="url(#972128488f)"><g clip-path="url(#38766708ac)"><g clip-path="url(#4f8f008b3c)"><g clip-path="url(#57f7619a35)"><path fill="#ffffff" d="M 167.742188 83.328125 L 167.742188 0.742188 L 186.589844 0.738281 L 186.589844 83.332031 Z M 167.742188 83.328125 " fill-opacity="1" fill-rule="nonzero"/></g></g></g></g></g></g></g></svg>