<svg xmlns="http://www.w3.org/2000/svg" xmlns:xlink="http://www.w3.org/1999/xlink" width="500" zoomAndPan="magnify" viewBox="0 0 375 149.999998" height="200" preserveAspectRatio="xMidYMid meet" version="1.0"><defs><g/><clipPath id="3b14fb8520"><path d="M 276 30 L 346 30 L 346 97 L 276 97 Z M 276 30 " clip-rule="nonzero"/></clipPath><clipPath id="2a34f0382a"><path d="M 320.574219 123.144531 L 251.101562 53.671875 L 320.574219 -15.800781 L 390.046875 53.671875 Z M 320.574219 123.144531 " clip-rule="nonzero"/></clipPath><clipPath id="0a8522fd59"><path d="M 320.574219 123.144531 L 251.101562 53.671875 L 320.574219 -15.800781 L 390.046875 53.671875 Z M 320.574219 123.144531 " clip-rule="nonzero"/></clipPath><clipPath id="7acc9aaa62"><path d="M 320.574219 123.144531 L 251.101562 53.671875 L 320.574219 -15.800781 L 390.046875 53.671875 Z M 320.574219 123.144531 " clip-rule="nonzero"/></clipPath><clipPath id="0aed5fb0eb"><path d="M 310.015625 111.472656 L 262.773438 64.230469 L 311.496094 15.507812 L 358.738281 62.75 Z M 310.015625 111.472656 " clip-rule="nonzero"/></clipPath><clipPath id="370e14a544"><path d="M 276.371094 30.214844 L 345.789062 30.214844 L 345.785156 96.90625 L 276.371094 96.90625 Z M 276.371094 30.214844 " clip-rule="nonzero"/></clipPath><clipPath id="139eab0d33"><path d="M 311.125 131.851562 L 242.765625 63.492188 L 310.941406 -4.683594 L 379.300781 63.675781 Z M 311.125 131.851562 " clip-rule="nonzero"/></clipPath><clipPath id="07f0970334"><path d="M 276.371094 30.214844 L 345.789062 30.214844 L 345.785156 96.90625 L 276.371094 96.90625 Z M 276.371094 30.214844 " clip-rule="nonzero"/></clipPath><clipPath id="f7c0eecf46"><path d="M 314.292969 30.210938 L 345.125 30.210938 L 345.125 59.550781 L 314.292969 59.550781 Z M 314.292969 30.210938 " clip-rule="nonzero"/></clipPath><clipPath id="ea17149c9b"><path d="M 320.574219 123.144531 L 251.101562 53.671875 L 320.574219 -15.800781 L 390.046875 53.671875 Z M 320.574219 123.144531 " clip-rule="nonzero"/></clipPath><clipPath id="83140eeab2"><path d="M 320.574219 123.144531 L 251.101562 53.671875 L 320.574219 -15.800781 L 390.046875 53.671875 Z M 320.574219 123.144531 " clip-rule="nonzero"/></clipPath><clipPath id="a19dd54283"><path d="M 320.574219 123.144531 L 251.101562 53.671875 L 320.574219 -15.800781 L 390.046875 53.671875 Z M 320.574219 123.144531 " clip-rule="nonzero"/></clipPath><clipPath id="ee7b8c7ed2"><path d="M 329.652344 75.164062 L 299.453125 44.964844 L 329.835938 14.582031 L 360.035156 44.78125 Z M 329.652344 75.164062 " clip-rule="nonzero"/></clipPath><clipPath id="13233372e0"><path d="M 329.6875 74.992188 L 299.585938 44.890625 L 329.734375 14.746094 L 359.835938 44.847656 Z M 329.6875 74.992188 " clip-rule="nonzero"/></clipPath><clipPath id="fa0e7baee6"><path d="M 318.175781 20.128906 L 349.011719 20.128906 L 349.011719 28.074219 L 318.175781 28.074219 Z M 318.175781 20.128906 " clip-rule="nonzero"/></clipPath><clipPath id="f1e584b971"><path d="M 320.574219 123.144531 L 251.101562 53.671875 L 320.574219 -15.800781 L 390.046875 53.671875 Z M 320.574219 123.144531 " clip-rule="nonzero"/></clipPath><clipPath id="f9457d21db"><path d="M 320.574219 123.144531 L 251.101562 53.671875 L 320.574219 -15.800781 L 390.046875 53.671875 Z M 320.574219 123.144531 " clip-rule="nonzero"/></clipPath><clipPath id="49a9280bd2"><path d="M 320.574219 123.144531 L 251.101562 53.671875 L 320.574219 -15.800781 L 390.046875 53.671875 Z M 320.574219 123.144531 " clip-rule="nonzero"/></clipPath><clipPath id="ff179ea31c"><path d="M 333.726562 43.667969 L 314.089844 24.03125 L 333.542969 4.578125 L 353.179688 24.214844 Z M 333.726562 43.667969 " clip-rule="nonzero"/></clipPath><clipPath id="f820013795"><path d="M 333.601562 43.511719 L 314.171875 24.082031 L 333.601562 4.652344 L 353.03125 24.082031 Z M 333.601562 43.511719 " clip-rule="nonzero"/></clipPath><clipPath id="c0234b6dd6"><path d="M 346 20 L 355 20 L 355 55 L 346 55 Z M 346 20 " clip-rule="nonzero"/></clipPath><clipPath id="ac342f0efa"><path d="M 320.574219 123.144531 L 251.101562 53.671875 L 320.574219 -15.800781 L 390.046875 53.671875 Z M 320.574219 123.144531 " clip-rule="nonzero"/></clipPath><clipPath id="8142843cba"><path d="M 320.574219 123.144531 L 251.101562 53.671875 L 320.574219 -15.800781 L 390.046875 53.671875 Z M 320.574219 123.144531 " clip-rule="nonzero"/></clipPath><clipPath id="a71e8d02d7"><path d="M 320.574219 123.144531 L 251.101562 53.671875 L 320.574219 -15.800781 L 390.046875 53.671875 Z M 320.574219 123.144531 " clip-rule="nonzero"/></clipPath><clipPath id="a165f41df8"><path d="M 350.957031 59.042969 L 329.46875 37.554688 L 350.921875 16.101562 L 372.410156 37.589844 Z M 350.957031 59.042969 " clip-rule="nonzero"/></clipPath><clipPath id="85f347d492"><path d="M 346.957031 54.941406 L 346.957031 20.109375 L 354.902344 20.113281 L 354.902344 54.941406 Z M 346.957031 54.941406 " clip-rule="nonzero"/></clipPath><clipPath id="627b3e468f"><path d="M 350.941406 58.984375 L 329.511719 37.554688 L 350.941406 16.125 L 372.375 37.554688 Z M 350.941406 58.984375 " clip-rule="nonzero"/></clipPath><clipPath id="7d6ce6261d"><path d="M 346.957031 54.941406 L 346.957031 20.109375 L 354.902344 20.113281 L 354.902344 54.941406 Z M 346.957031 54.941406 " clip-rule="nonzero"/></clipPath><clipPath id="bf4dfc61f2"><path d="M 7 25 L 57 25 L 57 100.921875 L 7 100.921875 Z M 7 25 " clip-rule="nonzero"/></clipPath><clipPath id="9932762b5f"><path d="M 90 25 L 139 25 L 139 100.921875 L 90 100.921875 Z M 90 25 " clip-rule="nonzero"/></clipPath><clipPath id="0a90968860"><rect x="0" width="258" y="0" height="101"/></clipPath></defs><g clip-path="url(#3b14fb8520)"><g clip-path="url(#2a34f0382a)"><g clip-path="url(#0a8522fd59)"><g clip-path="url(#7acc9aaa62)"><g clip-path="url(#0aed5fb0eb)"><g clip-path="url(#370e14a544)"><g clip-path="url(#139eab0d33)"><g clip-path="url(#07f0970334)"><path fill="#2a2e30" d="M 345.074219 67.652344 L 320.53125 67.652344 L 337.121094 84.242188 L 331.640625 89.722656 L 314.734375 72.816406 L 314.734375 96.824219 L 306.988281 96.824219 L 306.988281 73.105469 L 289.382812 90.710938 L 283.546875 84.875 L 300.769531 67.652344 L 276.40625 67.652344 L 276.40625 59.382812 L 301.316406 59.382812 L 284.550781 42.613281 L 290.027344 37.136719 L 306.988281 54.109375 L 306.988281 30.214844 L 314.734375 30.214844 L 314.734375 53.671875 L 332.09375 36.3125 L 337.933594 42.160156 L 320.710938 59.382812 L 345.074219 59.382812 Z M 345.074219 67.652344 " fill-opacity="1" fill-rule="nonzero"/></g></g></g></g></g></g></g></g><g clip-path="url(#f7c0eecf46)"><g clip-path="url(#ea17149c9b)"><g clip-path="url(#83140eeab2)"><g clip-path="url(#a19dd54283)"><g clip-path="url(#ee7b8c7ed2)"><g clip-path="url(#13233372e0)"><path fill="#f46530" d="M 314.292969 30.210938 L 345.121094 30.210938 L 345.121094 59.550781 L 314.292969 59.550781 Z M 314.292969 30.210938 " fill-opacity="1" fill-rule="nonzero"/></g></g></g></g></g></g><g clip-path="url(#fa0e7baee6)"><g clip-path="url(#f1e584b971)"><g clip-path="url(#f9457d21db)"><g clip-path="url(#49a9280bd2)"><g clip-path="url(#ff179ea31c)"><g clip-path="url(#f820013795)"><path fill="#2a2e30" d="M 318.175781 20.128906 L 349.003906 20.125 L 349.003906 28.074219 L 318.175781 28.074219 Z M 318.175781 20.128906 " fill-opacity="1" fill-rule="nonzero"/></g></g></g></g></g></g><g clip-path="url(#c0234b6dd6)"><g clip-path="url(#ac342f0efa)"><g clip-path="url(#8142843cba)"><g clip-path="url(#a71e8d02d7)"><g clip-path="url(#a165f41df8)"><g clip-path="url(#85f347d492)"><g clip-path="url(#627b3e468f)"><g clip-path="url(#7d6ce6261d)"><path fill="#2a2e30" d="M 346.957031 54.941406 L 346.957031 20.109375 L 354.902344 20.109375 L 354.902344 54.941406 Z M 346.957031 54.941406 " fill-opacity="1" fill-rule="nonzero"/></g></g></g></g></g></g></g></g><g transform="matrix(1, 0, 0, 1, 15, 33)"><g clip-path="url(#0a90968860)"><g clip-path="url(#bf4dfc61f2)"><g fill="#2a2e30" fill-opacity="1"><g transform="translate(0.862008, 86.162033)"><g><path d="M 23.25 0 C 21.507812 0 19.632812 -0.195312 17.625 -0.59375 C 15.625 -1 13.757812 -1.769531 12.03125 -2.90625 C 10.15625 -4.039062 8.863281 -5.691406 8.15625 -7.859375 C 7.457031 -10.035156 7.109375 -12.523438 7.109375 -15.328125 L 7.109375 -45 C 7.109375 -47.800781 7.59375 -50.203125 8.5625 -52.203125 C 9.53125 -54.210938 10.851562 -55.785156 12.53125 -56.921875 C 14.269531 -57.992188 16.039062 -58.828125 17.84375 -59.421875 C 19.644531 -60.023438 21.414062 -60.328125 23.15625 -60.328125 L 39.28125 -60.328125 C 41.019531 -60.328125 42.773438 -60.023438 44.546875 -59.421875 C 46.316406 -58.828125 48.140625 -57.992188 50.015625 -56.921875 C 51.617188 -55.785156 52.90625 -54.195312 53.875 -52.15625 C 54.84375 -50.125 55.328125 -47.738281 55.328125 -45 L 55.328125 9.515625 C 55.328125 12.722656 53.488281 14.328125 49.8125 14.328125 C 46.132812 14.328125 44.296875 12.757812 44.296875 9.625 L 44.296875 -44.296875 C 44.296875 -45.960938 43.773438 -47.476562 42.734375 -48.84375 C 41.703125 -50.21875 39.953125 -50.90625 37.484375 -50.90625 L 24.953125 -50.90625 C 22.484375 -50.90625 20.726562 -50.21875 19.6875 -48.84375 C 18.65625 -47.476562 18.140625 -45.960938 18.140625 -44.296875 L 18.140625 -16.03125 C 18.140625 -14.425781 18.65625 -12.921875 19.6875 -11.515625 C 20.726562 -10.117188 22.484375 -9.421875 24.953125 -9.421875 L 35.375 -9.421875 C 37.78125 -9.421875 38.984375 -7.847656 38.984375 -4.703125 C 38.984375 -3.367188 38.695312 -2.25 38.125 -1.34375 C 37.5625 -0.445312 36.644531 0 35.375 0 Z M 23.25 0 "/></g></g></g></g><g fill="#2a2e30" fill-opacity="1"><g transform="translate(62.892905, 86.162033)"><g><path d="M 18.546875 -3.90625 C 18.546875 -0.769531 16.707031 0.796875 13.03125 0.796875 C 9.289062 0.796875 7.421875 -0.769531 7.421875 -3.90625 L 7.421875 -75.765625 C 7.421875 -78.898438 9.289062 -80.46875 13.03125 -80.46875 C 16.707031 -80.46875 18.546875 -78.898438 18.546875 -75.765625 Z M 18.546875 -3.90625 "/></g></g></g><g clip-path="url(#9932762b5f)"><g fill="#2a2e30" fill-opacity="1"><g transform="translate(89.248617, 86.162033)"><g><path d="M 10.328125 14.03125 C 7.984375 14.03125 6.742188 12.460938 6.609375 9.328125 C 6.609375 6.179688 7.847656 4.609375 10.328125 4.609375 L 14.734375 4.609375 C 17.066406 4.609375 18.601562 3.90625 19.34375 2.5 L 20.75 -1.203125 L 21.25 -2.8125 L 1.703125 -54.015625 L 1.703125 -53.921875 C 1.171875 -55.523438 1.285156 -56.894531 2.046875 -58.03125 C 2.816406 -59.164062 4.003906 -60 5.609375 -60.53125 C 6.816406 -60.863281 7.785156 -61.03125 8.515625 -61.03125 C 10.453125 -61.03125 11.65625 -59.894531 12.125 -57.625 L 20.046875 -37.875 L 26.765625 -21.453125 L 37.484375 -57.421875 C 38.085938 -59.828125 39.488281 -61.03125 41.6875 -61.03125 C 42.226562 -61.03125 43.097656 -60.863281 44.296875 -60.53125 C 45.898438 -60.0625 47.050781 -59.289062 47.75 -58.21875 C 48.457031 -57.15625 48.609375 -55.890625 48.203125 -54.421875 C 45.203125 -44.191406 42.144531 -33.898438 39.03125 -23.546875 C 35.925781 -13.191406 32.867188 -2.9375 29.859375 7.21875 C 29.523438 7.945312 29.007812 8.695312 28.3125 9.46875 C 27.613281 10.238281 26.695312 10.972656 25.5625 11.671875 C 24.425781 12.378906 23.019531 12.945312 21.34375 13.375 C 19.675781 13.8125 17.738281 14.03125 15.53125 14.03125 Z M 10.328125 14.03125 "/></g></g></g></g><g fill="#2a2e30" fill-opacity="1"><g transform="translate(139.955639, 86.162033)"><g><path d="M 18.140625 -4.203125 C 18.140625 -1.003906 16.300781 0.59375 12.625 0.59375 C 8.945312 0.59375 7.109375 -1.003906 7.109375 -4.203125 L 7.109375 -44.5 C 7.109375 -47.238281 7.539062 -49.609375 8.40625 -51.609375 C 9.28125 -53.617188 10.65625 -55.253906 12.53125 -56.515625 C 16.070312 -59.054688 19.613281 -60.328125 23.15625 -60.328125 L 39.28125 -60.328125 C 42.6875 -60.328125 46.226562 -59.054688 49.90625 -56.515625 C 53.519531 -53.984375 55.328125 -49.976562 55.328125 -44.5 L 55.328125 -4.203125 C 55.328125 -1.003906 53.488281 0.59375 49.8125 0.59375 C 46.132812 0.59375 44.296875 -1.003906 44.296875 -4.203125 L 44.296875 -43.59375 C 44.296875 -45.332031 43.757812 -47.003906 42.6875 -48.609375 L 42.796875 -48.5 C 41.921875 -50.101562 40.148438 -50.90625 37.484375 -50.90625 L 24.953125 -50.90625 C 22.210938 -50.90625 20.410156 -50.101562 19.546875 -48.5 C 18.609375 -47.101562 18.140625 -45.46875 18.140625 -43.59375 Z M 18.140625 -4.203125 "/></g></g></g><g fill="#2a2e30" fill-opacity="1"><g transform="translate(202.186957, 86.162033)"><g><path d="M 18.140625 -16.734375 L 18.140625 -4.015625 C 18.140625 -0.867188 16.300781 0.703125 12.625 0.703125 C 8.945312 0.703125 7.109375 -0.867188 7.109375 -4.015625 L 7.109375 -75.359375 C 7.109375 -78.566406 8.945312 -80.171875 12.625 -80.171875 C 16.300781 -80.171875 18.140625 -78.566406 18.140625 -75.359375 L 18.140625 -32.875 C 19.804688 -34.875 21.660156 -37.023438 23.703125 -39.328125 C 25.742188 -41.640625 27.78125 -43.976562 29.8125 -46.34375 C 31.851562 -48.71875 33.875 -51.054688 35.875 -53.359375 C 37.882812 -55.671875 39.753906 -57.828125 41.484375 -59.828125 L 41.484375 -59.734375 C 42.691406 -61.128906 43.894531 -61.828125 45.09375 -61.828125 C 45.757812 -61.828125 46.410156 -61.675781 47.046875 -61.375 C 47.679688 -61.082031 48.367188 -60.664062 49.109375 -60.125 L 49 -60.125 C 50.601562 -58.789062 51.40625 -57.457031 51.40625 -56.125 C 51.40625 -55.65625 51.304688 -55.132812 51.109375 -54.5625 C 50.910156 -54 50.578125 -53.515625 50.109375 -53.109375 Z M 51.609375 -6.71875 C 52.078125 -5.84375 52.3125 -4.941406 52.3125 -4.015625 C 52.3125 -2.273438 51.3125 -0.96875 49.3125 -0.09375 C 47.96875 0.707031 46.765625 1.109375 45.703125 1.109375 C 44.960938 1.109375 44.257812 0.851562 43.59375 0.34375 C 42.925781 -0.15625 42.390625 -0.769531 41.984375 -1.5 L 31.96875 -20.84375 C 31.363281 -21.84375 31.0625 -22.847656 31.0625 -23.859375 C 31.0625 -25.523438 31.929688 -26.925781 33.671875 -28.0625 C 34.140625 -28.394531 34.625 -28.691406 35.125 -28.953125 C 35.625 -29.222656 36.175781 -29.425781 36.78125 -29.5625 C 37.507812 -29.695312 38.207031 -29.5625 38.875 -29.15625 C 39.550781 -28.757812 40.125 -28.226562 40.59375 -27.5625 Z M 51.609375 -6.71875 "/></g></g></g></g></g></svg>